<svg id="Layer_1" data-name="Layer 1" xmlns="http://www.w3.org/2000/svg" viewBox="0 0 857 115"><defs><style>.cls-1{fill:#ff9690;}.cls-2{fill:#bb0501;}</style></defs><title>logo 3</title><path class="cls-1" d="M60.12,88.69h-13V59.83q0-7.94,4.16-12.94a17,17,0,0,1,6.09-4.58A18.51,18.51,0,0,1,78,45.81a17.18,17.18,0,0,1,5.31,12.76A17.45,17.45,0,0,1,78,71.27a17,17,0,0,1-12.49,5.34q-1.18,0-3.47-.24V62.08a5.09,5.09,0,0,0,3.19,1.28,4.63,4.63,0,0,0,3.45-1.49,4.92,4.92,0,0,0,1.44-3.54,4.67,4.67,0,0,0-1.49-3.49,5,5,0,0,0-3.57-1.44q-5,0-5,6.9V88.69Z"/><path class="cls-1" d="M102,28.54V75.89H89V28.54h13Z"/><path class="cls-1" d="M128.79,62.91V76.34a17.12,17.12,0,0,1-2.91.28,17.77,17.77,0,0,1-13-5.13,17.33,17.33,0,0,1-5.2-12.87,17.91,17.91,0,0,1,18-18q8.39,0,13.23,4.91t4.84,13.41v17h-13v-16a6.69,6.69,0,0,0-1.34-4.37,4.4,4.4,0,0,0-3.59-1.63,5.11,5.11,0,0,0-3.68,8.57,4.59,4.59,0,0,0,3.43,1.39A5.89,5.89,0,0,0,128.79,62.91Z"/><path class="cls-1" d="M182.17,75.89h-13V56.36q0-3-2.46-3t-2.43,3V75.89h-13V56.6a15.77,15.77,0,0,1,4.47-11.39,15.58,15.58,0,0,1,22.86.75q3.5,4.2,3.5,11.69V75.89Z"/><path class="cls-1" d="M201.28,28.54V41.79h5.83v13.7h-5.83q0,4.13,1.3,5.69t4.77,1.56V76.37l-1.49,0a17.63,17.63,0,0,1-8.31-2,16.81,16.81,0,0,1-6.26-5.55q-3-4.47-3-11.86V28.54h13Z"/><path class="cls-1" d="M226.46,41.31V75.89h-13V41.31h13ZM220,25.87a6.35,6.35,0,0,1,4.56,1.86,6.14,6.14,0,0,1,.1,8.83,7.14,7.14,0,0,1-9.33,0,6.14,6.14,0,0,1,.1-8.83A6.35,6.35,0,0,1,220,25.87Z"/><path class="cls-1" d="M264.93,75.89H252V56.36q0-3-2.46-3t-2.43,3V75.89h-13V56.6a15.77,15.77,0,0,1,4.47-11.39,15.58,15.58,0,0,1,22.86.75q3.5,4.2,3.5,11.69V75.89Z"/><path class="cls-1" d="M290.94,61.63v11.9a15.48,15.48,0,0,1-5.38,1,13.87,13.87,0,0,1-10.63-4.75,16.57,16.57,0,0,1-4.35-11.62,16.8,16.8,0,0,1,5.24-12.52,17.74,17.74,0,0,1,12.87-5.1,19.12,19.12,0,0,1,7.77,1.63,14.59,14.59,0,0,1,5.83,4.37q3.54,4.54,3.54,13.18V71.13q0,9.26-5.25,15a17.64,17.64,0,0,1-13.68,5.77,21.76,21.76,0,0,1-6.49-1.28V78.87a10.58,10.58,0,0,0,5.13,1.39A6.63,6.63,0,0,0,290.94,78q1.91-2.31,1.91-6.61v-13q0-5.44-4.41-5.45a4.44,4.44,0,0,0-3.28,1.44,4.61,4.61,0,0,0-1.4,3.31,4.44,4.44,0,0,0,1.34,3.29,4.52,4.52,0,0,0,3.31,1.32A5.47,5.47,0,0,0,290.94,61.63Z"/><path class="cls-1" d="M352.51,28.54h13V57.37q0,7.94-4.16,12.94a17,17,0,0,1-6.09,4.58,18.52,18.52,0,0,1-20.62-3.5,17.18,17.18,0,0,1-5.31-12.76A17.41,17.41,0,0,1,334.58,46a17,17,0,0,1,12.49-5.34q1.14,0,3.47.21V55.11a5.18,5.18,0,0,0-3.19-1.25,4.65,4.65,0,0,0-3.45,1.47,4.9,4.9,0,0,0-1.44,3.56,4.63,4.63,0,0,0,1.49,3.45,5,5,0,0,0,3.57,1.44q5,0,5-6.9V28.54Z"/><path class="cls-1" d="M391.53,62.91V76.34a17.12,17.12,0,0,1-2.91.28,17.77,17.77,0,0,1-13-5.13,17.33,17.33,0,0,1-5.2-12.87,17.91,17.91,0,0,1,18-18q8.39,0,13.23,4.91t4.84,13.41v17h-13v-16a6.69,6.69,0,0,0-1.34-4.37,4.4,4.4,0,0,0-3.59-1.63,5.11,5.11,0,0,0-3.68,8.57,4.59,4.59,0,0,0,3.43,1.39A5.89,5.89,0,0,0,391.53,62.91Z"/><path class="cls-1" d="M425.62,28.54V41.79h5.83v13.7h-5.83q0,4.13,1.3,5.69t4.77,1.56V76.37l-1.49,0a17.63,17.63,0,0,1-8.31-2,16.81,16.81,0,0,1-6.26-5.55q-3-4.47-3-11.86V28.54h13Z"/><path class="cls-1" d="M471.82,60.69H452.16a9.08,9.08,0,0,1,.17-6.14h6.59q-0.69-3.85-4.34-3.85a4.71,4.71,0,0,0-4,2.06,8.66,8.66,0,0,0-1.53,5.29,9.22,9.22,0,0,0,1.47,5.45,4.53,4.53,0,0,0,3.87,2.08,5.16,5.16,0,0,0,3.75-1.94l7.39,8.88a18.15,18.15,0,0,1-11.48,4.06,17.7,17.7,0,0,1-12.94-5.17,17.26,17.26,0,0,1-5.24-12.8,17.36,17.36,0,0,1,5.29-12.83,17.75,17.75,0,0,1,13-5.24A17.47,17.47,0,0,1,472,58.27Q472,59,471.82,60.69Z"/><path class="cls-1" d="M516.18,60l12.87-.49a18.29,18.29,0,0,1-5.58,12.31,17,17,0,0,1-12.24,4.82,17.43,17.43,0,0,1-12.89-5.31,17.78,17.78,0,0,1-5.25-13,16.9,16.9,0,0,1,5.31-12.52,18,18,0,0,1,30.35,9.33l-13.15.49a5.2,5.2,0,0,0-4.3-2.22,4.87,4.87,0,0,0-3.64,1.46,5,5,0,0,0-1.42,3.68,5.16,5.16,0,0,0,1.51,3.78,5.08,5.08,0,0,0,3.76,1.53Q514.8,63.82,516.18,60Z"/><path class="cls-1" d="M553.92,62.91V76.34a17.13,17.13,0,0,1-2.91.28,17.77,17.77,0,0,1-13-5.13,17.33,17.33,0,0,1-5.2-12.87,17.91,17.91,0,0,1,18-18q8.39,0,13.23,4.91t4.84,13.41v17h-13v-16a6.69,6.69,0,0,0-1.34-4.37A4.4,4.4,0,0,0,551,53.86a5.11,5.11,0,0,0-3.68,8.57,4.59,4.59,0,0,0,3.43,1.39A5.88,5.88,0,0,0,553.92,62.91Z"/><path class="cls-1" d="M589.44,28.54V75.89h-13V28.54h13Z"/><path class="cls-1" d="M618.26,60l12.87-.49a18.29,18.29,0,0,1-5.58,12.31,17,17,0,0,1-12.24,4.82,17.43,17.43,0,0,1-12.89-5.31,17.78,17.78,0,0,1-5.25-13,16.9,16.9,0,0,1,5.31-12.52,18,18,0,0,1,30.35,9.33l-13.15.49a5.2,5.2,0,0,0-4.3-2.22,4.87,4.87,0,0,0-3.64,1.46,5,5,0,0,0-1.42,3.68,5.16,5.16,0,0,0,1.51,3.78,5.08,5.08,0,0,0,3.76,1.53Q616.87,63.82,618.26,60Z"/><path class="cls-1" d="M636.78,41.79h13V61.32q0,2.95,2.46,2.95t2.43-2.95V41.79h13V61.08a15.72,15.72,0,0,1-4.47,11.36,15.58,15.58,0,0,1-22.86-.75q-3.5-4.2-3.5-11.65V41.79Z"/><path class="cls-1" d="M688.15,28.54V75.89h-13V28.54h13Z"/><path class="cls-1" d="M715,62.91V76.34a17.13,17.13,0,0,1-2.91.28,17.77,17.77,0,0,1-13-5.13,17.33,17.33,0,0,1-5.2-12.87,17.91,17.91,0,0,1,18-18q8.39,0,13.23,4.91t4.84,13.41v17H717v-16a6.69,6.69,0,0,0-1.34-4.37A4.4,4.4,0,0,0,712,53.86a5.11,5.11,0,0,0-3.68,8.57,4.59,4.59,0,0,0,3.43,1.39A5.88,5.88,0,0,0,715,62.91Z"/><path class="cls-1" d="M749.06,28.54V41.79h5.83v13.7h-5.83q0,4.13,1.3,5.69t4.77,1.56V76.37l-1.49,0a17.63,17.63,0,0,1-8.31-2,16.82,16.82,0,0,1-6.26-5.55q-3-4.47-3-11.86V28.54h13Z"/><path class="cls-1" d="M777.67,40.58a17.14,17.14,0,0,1,12.61,5.29,17.94,17.94,0,0,1-.07,25.44,18.3,18.3,0,0,1-25.72,0,17.29,17.29,0,0,1-5.34-12.75,17.11,17.11,0,0,1,5.34-12.78A18.19,18.19,0,0,1,777.67,40.58Zm-0.35,12.8a4.73,4.73,0,0,0-3.54,1.51,5.37,5.37,0,0,0,0,7.37,4.86,4.86,0,0,0,7.08,0,5.37,5.37,0,0,0,0-7.37A4.77,4.77,0,0,0,777.33,53.38Z"/><path class="cls-1" d="M819.92,41V54.83a5.1,5.1,0,0,0-2.46-.76q-3.54,0-3.54,5.41V75.89h-13V57q0-7.49,4.09-11.95A14.12,14.12,0,0,1,816,40.58,26.57,26.57,0,0,1,819.92,41Z"/><path class="cls-2" d="M57.45,86.69h-13V57.83q0-7.94,4.16-12.94a17,17,0,0,1,6.09-4.58,18.51,18.51,0,0,1,20.62,3.5,17.18,17.18,0,0,1,5.31,12.76,17.45,17.45,0,0,1-5.27,12.69A17,17,0,0,1,62.9,74.62q-1.18,0-3.47-.24V60.08a5.09,5.09,0,0,0,3.19,1.28,4.63,4.63,0,0,0,3.45-1.49,4.92,4.92,0,0,0,1.44-3.54A4.67,4.67,0,0,0,66,52.85a5,5,0,0,0-3.57-1.44q-5,0-5,6.9V86.69Z"/><path class="cls-2" d="M99.31,26.54V73.89h-13V26.54h13Z"/><path class="cls-2" d="M126.13,60.91V74.34a17.12,17.12,0,0,1-2.91.28,17.77,17.77,0,0,1-13-5.13A17.33,17.33,0,0,1,105,56.61a17.91,17.91,0,0,1,18-18q8.39,0,13.23,4.91t4.84,13.41v17h-13v-16a6.69,6.69,0,0,0-1.34-4.37,4.4,4.4,0,0,0-3.59-1.63,5.11,5.11,0,0,0-3.68,8.57A4.59,4.59,0,0,0,123,61.82,5.89,5.89,0,0,0,126.13,60.91Z"/><path class="cls-2" d="M179.5,73.89h-13V54.36q0-3-2.46-3t-2.43,3V73.89h-13V54.6a15.77,15.77,0,0,1,4.47-11.39A15.58,15.58,0,0,1,176,44q3.5,4.2,3.5,11.69V73.89Z"/><path class="cls-2" d="M198.62,26.54V39.79h5.83v13.7h-5.83q0,4.13,1.3,5.69t4.77,1.56V74.37l-1.49,0a17.63,17.63,0,0,1-8.31-2,16.81,16.81,0,0,1-6.26-5.55q-3-4.47-3-11.86V26.54h13Z"/><path class="cls-2" d="M223.8,39.31V73.89h-13V39.31h13Zm-6.45-15.43a6.35,6.35,0,0,1,4.56,1.86,6.14,6.14,0,0,1,.1,8.83,7.14,7.14,0,0,1-9.33,0,6.14,6.14,0,0,1,.1-8.83A6.35,6.35,0,0,1,217.35,23.87Z"/><path class="cls-2" d="M262.26,73.89h-13V54.36q0-3-2.46-3t-2.43,3V73.89h-13V54.6a15.77,15.77,0,0,1,4.47-11.39,15.58,15.58,0,0,1,22.86.75q3.5,4.2,3.5,11.69V73.89Z"/><path class="cls-2" d="M288.28,59.63v11.9a15.48,15.48,0,0,1-5.38,1,13.87,13.87,0,0,1-10.63-4.75,16.57,16.57,0,0,1-4.35-11.62,16.8,16.8,0,0,1,5.24-12.52A17.74,17.74,0,0,1,286,38.58a19.12,19.12,0,0,1,7.77,1.63,14.59,14.59,0,0,1,5.83,4.37q3.54,4.54,3.54,13.18V69.13q0,9.26-5.25,15a17.64,17.64,0,0,1-13.68,5.77,21.76,21.76,0,0,1-6.49-1.28V76.87a10.58,10.58,0,0,0,5.13,1.39A6.63,6.63,0,0,0,288.28,76q1.91-2.31,1.91-6.61v-13q0-5.44-4.41-5.45a4.44,4.44,0,0,0-3.28,1.44,4.61,4.61,0,0,0-1.4,3.31,4.44,4.44,0,0,0,1.34,3.29,4.52,4.52,0,0,0,3.31,1.32A5.47,5.47,0,0,0,288.28,59.63Z"/><path class="cls-2" d="M349.84,26.54h13V55.37q0,7.94-4.16,12.94a17,17,0,0,1-6.09,4.58,18.52,18.52,0,0,1-20.62-3.5,17.18,17.18,0,0,1-5.31-12.76A17.41,17.41,0,0,1,331.91,44a17,17,0,0,1,12.49-5.34q1.14,0,3.47.21V53.11a5.18,5.18,0,0,0-3.19-1.25,4.65,4.65,0,0,0-3.45,1.47,4.9,4.9,0,0,0-1.44,3.56,4.63,4.63,0,0,0,1.49,3.45,5,5,0,0,0,3.57,1.44q5,0,5-6.9V26.54Z"/><path class="cls-2" d="M388.86,60.91V74.34a17.12,17.12,0,0,1-2.91.28,17.77,17.77,0,0,1-13-5.13,17.33,17.33,0,0,1-5.2-12.87,17.91,17.91,0,0,1,18-18q8.39,0,13.23,4.91t4.84,13.41v17h-13v-16a6.69,6.69,0,0,0-1.34-4.37,4.4,4.4,0,0,0-3.59-1.63,5.11,5.11,0,0,0-3.68,8.57,4.59,4.59,0,0,0,3.43,1.39A5.89,5.89,0,0,0,388.86,60.91Z"/><path class="cls-2" d="M423,26.54V39.79h5.83v13.7H423q0,4.13,1.3,5.69T429,60.74V74.37l-1.49,0a17.63,17.63,0,0,1-8.31-2A16.81,16.81,0,0,1,413,66.81q-3-4.47-3-11.86V26.54h13Z"/><path class="cls-2" d="M469.16,58.69H449.49a9.08,9.08,0,0,1,.17-6.14h6.59q-0.69-3.85-4.34-3.85a4.71,4.71,0,0,0-4,2.06,8.66,8.66,0,0,0-1.53,5.29,9.22,9.22,0,0,0,1.47,5.45,4.53,4.53,0,0,0,3.87,2.08,5.16,5.16,0,0,0,3.75-1.94l7.39,8.88a18.15,18.15,0,0,1-11.48,4.06,17.7,17.7,0,0,1-12.94-5.17,17.26,17.26,0,0,1-5.24-12.8,17.36,17.36,0,0,1,5.29-12.83,17.75,17.75,0,0,1,13-5.24,17.47,17.47,0,0,1,17.76,17.72Q469.29,57,469.16,58.69Z"/><path class="cls-2" d="M513.52,58l12.87-.49a18.29,18.29,0,0,1-5.58,12.31,17,17,0,0,1-12.24,4.82,17.43,17.43,0,0,1-12.89-5.31,17.78,17.78,0,0,1-5.25-13,16.9,16.9,0,0,1,5.31-12.52,18,18,0,0,1,30.35,9.33l-13.15.49a5.2,5.2,0,0,0-4.3-2.22A4.87,4.87,0,0,0,505,52.83a5,5,0,0,0-1.42,3.68,5.16,5.16,0,0,0,1.51,3.78,5.08,5.08,0,0,0,3.76,1.53Q512.13,61.82,513.52,58Z"/><path class="cls-2" d="M551.25,60.91V74.34a17.13,17.13,0,0,1-2.91.28,17.77,17.77,0,0,1-13-5.13,17.33,17.33,0,0,1-5.2-12.87,17.91,17.91,0,0,1,18-18q8.39,0,13.23,4.91t4.84,13.41v17h-13v-16a6.69,6.69,0,0,0-1.34-4.37,4.4,4.4,0,0,0-3.59-1.63,5.11,5.11,0,0,0-3.68,8.57,4.59,4.59,0,0,0,3.43,1.39A5.88,5.88,0,0,0,551.25,60.91Z"/><path class="cls-2" d="M586.77,26.54V73.89h-13V26.54h13Z"/><path class="cls-2" d="M615.59,58l12.87-.49a18.29,18.29,0,0,1-5.58,12.31,17,17,0,0,1-12.24,4.82,17.43,17.43,0,0,1-12.89-5.31,17.78,17.78,0,0,1-5.25-13,16.9,16.9,0,0,1,5.31-12.52,18,18,0,0,1,30.35,9.33L615,53.6a5.2,5.2,0,0,0-4.3-2.22,4.87,4.87,0,0,0-3.64,1.46,5,5,0,0,0-1.42,3.68,5.16,5.16,0,0,0,1.51,3.78,5.08,5.08,0,0,0,3.76,1.53Q614.21,61.82,615.59,58Z"/><path class="cls-2" d="M634.12,39.79h13V59.32q0,2.95,2.46,2.95T652,59.32V39.79h13V59.08a15.72,15.72,0,0,1-4.47,11.36,15.58,15.58,0,0,1-22.86-.75q-3.5-4.2-3.5-11.65V39.79Z"/><path class="cls-2" d="M685.48,26.54V73.89h-13V26.54h13Z"/><path class="cls-2" d="M712.29,60.91V74.34a17.13,17.13,0,0,1-2.91.28,17.77,17.77,0,0,1-13-5.13,17.33,17.33,0,0,1-5.2-12.87,17.91,17.91,0,0,1,18-18q8.39,0,13.23,4.91t4.84,13.41v17h-13v-16A6.69,6.69,0,0,0,713,53.49a4.4,4.4,0,0,0-3.59-1.63,5.11,5.11,0,0,0-3.68,8.57,4.59,4.59,0,0,0,3.43,1.39A5.88,5.88,0,0,0,712.29,60.91Z"/><path class="cls-2" d="M746.39,26.54V39.79h5.83v13.7h-5.83q0,4.13,1.3,5.69t4.77,1.56V74.37l-1.49,0a17.63,17.63,0,0,1-8.31-2,16.82,16.82,0,0,1-6.26-5.55q-3-4.47-3-11.86V26.54h13Z"/><path class="cls-2" d="M775,38.58a17.14,17.14,0,0,1,12.61,5.29,17.94,17.94,0,0,1-.07,25.44,18.3,18.3,0,0,1-25.72,0,17.29,17.29,0,0,1-5.34-12.75,17.11,17.11,0,0,1,5.34-12.78A18.19,18.19,0,0,1,775,38.58Zm-0.35,12.8a4.73,4.73,0,0,0-3.54,1.51,5.37,5.37,0,0,0,0,7.37,4.86,4.86,0,0,0,7.08,0,5.37,5.37,0,0,0,0-7.37A4.77,4.77,0,0,0,774.66,51.38Z"/><path class="cls-2" d="M817.25,39V52.83a5.1,5.1,0,0,0-2.46-.76q-3.54,0-3.54,5.41V73.89h-13V55q0-7.49,4.09-11.95a14.12,14.12,0,0,1,10.93-4.46A26.57,26.57,0,0,1,817.25,39Z"/></svg>